<svg width="222" height="219" viewBox="0 0 222 219" fill="none" xmlns="http://www.w3.org/2000/svg">
<g id="_06_&#232;&#172;&#142;" clip-path="url(#clip0_68_2925)">
<path id="Vector" d="M71.36 79.19C71.36 84.89 68.43 87.73 62.58 87.73H15.24C9.54 87.73 6.7 84.88 6.7 79.19C6.7 73.5 9.55 70.88 15.24 70.88H62.58C68.43 70.88 71.36 73.65 71.36 79.19ZM69.98 56.79C75.83 56.79 78.76 54.02 78.76 48.48C78.76 42.94 75.83 39.94 69.98 39.94H50.12C52.27 37.63 52.04 33.63 49.43 27.93C47.58 24.39 45.65 20.89 43.66 17.42C41.66 13.96 39.42 10.3 36.96 6.44999C34.48 2.59999 32.29 0.479994 30.37 0.0999937C28.44 -0.280006 26.1 0.449994 23.33 2.28999C20.71 3.98999 19.52 5.94999 19.75 8.17999C19.98 10.41 21.17 13.22 23.33 16.61C25.48 20 27.52 23.35 29.45 26.66C31.37 29.97 33.49 33.7 35.8 37.86C36.11 38.32 36.3 38.71 36.38 39.01C36.46 39.32 36.65 39.63 36.96 39.93H8.78C2.93 39.93 0 42.78 0 48.47C0 54.16 2.92 56.78 8.78 56.78H69.98V56.79ZM80.37 30.7C81.91 32.55 83.33 34.39 84.64 36.24C85.94 38.09 87.26 40.01 88.57 42.01C89.87 44.01 91.3 46.4 92.84 49.17C94.84 52.4 96.57 54.33 98.04 54.94C99.5 55.56 101.47 54.94 103.93 53.09L103.7 53.32C106.32 52.09 107.97 50.63 108.66 48.93C109.35 47.24 108.62 44.62 106.47 41.08C104.93 38.62 103.54 36.43 102.31 34.5C101.08 32.58 99.81 30.69 98.5 28.84C97.19 26.99 95.76 25.11 94.23 23.18C92.69 21.26 90.92 18.99 88.92 16.37C86.61 13.91 84.45 12.41 82.45 11.87C80.45 11.33 78.29 11.83 75.99 13.37C74.14 14.91 73.18 16.68 73.1 18.68C73.02 20.68 73.6 22.53 74.83 24.22C76.98 26.68 78.83 28.84 80.37 30.69V30.7ZM128.63 49.41C130.94 56.03 132.94 62.8 134.64 69.73C135.87 72.81 137.45 75 139.37 76.31C141.29 77.62 143.41 77.97 145.72 77.35C147.57 76.12 148.8 74.5 149.42 72.5C150.03 70.5 149.88 67.65 148.96 63.96C147.42 58.11 145.5 51.61 143.19 44.45C140.88 37.29 138.11 30.25 134.88 23.32C133.18 20.4 131.22 18.43 128.99 17.43C126.76 16.43 124.79 16.62 123.1 18.01C121.4 19.24 120.25 20.74 119.64 22.51C119.02 24.28 119.33 26.48 120.56 29.09C123.64 36.02 126.33 42.79 128.64 49.41H128.63ZM15.24 118.22H64.89C70.74 118.22 73.66 115.45 73.66 109.91C73.66 104.37 70.73 101.37 64.89 101.37H15.24C9.54 101.37 6.7 104.22 6.7 109.91C6.7 115.6 9.55 118.22 15.24 118.22ZM119.62 174.34C121.77 175.88 124.12 176.15 126.66 175.15C129.2 174.15 131.32 172.11 133.01 169.03C133.78 167.64 135.13 164.84 137.05 160.6C138.97 156.37 140.98 151.59 143.05 146.28C145.13 140.97 147.13 135.74 149.05 130.58C150.97 125.42 152.4 121.23 153.32 117.99C154.09 114.61 153.9 111.91 152.74 109.91C151.59 107.91 149.7 106.68 147.08 106.22C144 105.61 141.73 106.18 140.27 107.95C138.81 109.72 137.85 111.84 137.38 114.3C136.61 117.07 135.49 120.54 134.03 124.69C132.57 128.85 130.99 133.12 129.3 137.51C127.6 141.9 125.76 146.25 123.76 150.56C121.76 154.87 119.83 158.49 117.99 161.41C116.45 164.03 115.68 166.41 115.68 168.57C115.68 170.73 116.99 172.65 119.61 174.34H119.62ZM41.36 165.03C37.75 165.03 34.81 167.96 34.81 171.58C34.81 174.3 36.47 176.64 38.84 177.62V188.21H43.87V177.62C46.24 176.63 47.9 174.3 47.9 171.58C47.9 167.96 44.97 165.03 41.35 165.03H41.36ZM219.62 200.44C218.08 199.52 216 199.05 213.39 199.05H159.12C147.11 199.05 137.22 196.7 129.44 192.01C121.66 187.31 115.32 180.12 110.39 170.42C111.62 166.42 112.77 162.3 113.85 158.07C114.93 153.84 115.85 149.57 116.62 145.25C117.23 140.17 117.5 136.01 117.43 132.78C117.35 129.55 116.85 127.01 115.93 125.16C115.01 123.31 113.54 122.04 111.54 121.35C109.54 120.66 107.07 120.31 104.15 120.31H98.61C97.38 120.31 96.91 119.85 97.22 118.92L111.31 93.52C114.85 86.59 115.77 81.01 114.08 76.78C112.38 72.55 107.92 70.43 100.69 70.43H82.45C80.29 70.43 78.52 71.16 77.14 72.62C75.76 74.08 75.06 76.12 75.06 78.74C75.06 81.36 75.75 83.47 77.14 85.09C78.52 86.71 80.29 87.51 82.45 87.51H91.92C94.07 87.51 95.27 87.97 95.5 88.9C95.73 89.82 94.92 91.83 93.07 94.9C90.91 99.37 88.87 103.25 86.95 106.56C85.02 109.87 82.99 113.37 80.83 117.07C76.82 124 75.75 129.04 77.6 132.2C79.45 135.36 83.45 136.93 89.61 136.93H94C96.15 136.93 97.85 137.62 99.08 139.01C100.31 140.4 100.54 143.09 99.77 147.09C97.61 159.1 94.38 169.84 90.07 179.3C85.76 188.77 80.22 197.12 73.44 204.36C72.06 205.75 70.94 207.51 70.09 209.67C69.24 211.82 69.89 213.98 72.05 216.14C74.05 218.14 76.24 218.99 78.63 218.68C81.01 218.37 83.44 216.68 85.9 213.6C89.6 208.98 92.86 204.63 95.71 200.55C98.56 196.47 101.21 191.74 103.68 186.35C110.91 197.59 119.27 205.32 128.74 209.56C138.21 213.79 148.33 215.91 159.11 215.91H213.38C216 215.91 218.07 215.29 219.61 214.06C221.15 212.83 221.92 210.52 221.92 207.13C221.92 203.74 221.15 201.36 219.61 200.43L219.62 200.44ZM73.44 192.36C73.44 199.9 71.82 205.1 68.59 207.95C65.36 210.8 61.12 212.22 55.89 212.22H25.87C19.4 212.22 14.9 210.56 12.36 207.25C9.82 203.94 8.55 198.97 8.55 192.35V148.7C8.55 136.08 14.32 129.76 25.87 129.76H55.89C61.28 129.76 65.55 131.19 68.71 134.03C71.86 136.88 73.44 141.77 73.44 148.69V192.34V192.36ZM60.98 163.8C60.98 160.37 58.43 157.54 55.12 157.08C55.12 157.08 53.83 153.34 53.26 151.82C52.39 149.5 48.45 145.27 43.95 145.1C43.9 145.1 43.84 145.07 43.79 145.07C34.16 145.04 30.58 150.14 27.83 157.05C24.41 157.4 21.73 160.29 21.73 163.8V189.46C21.73 193.21 24.77 196.25 28.52 196.25H54.18C57.93 196.25 60.97 193.21 60.97 189.46V163.8H60.98ZM119.4 89.6C119.4 95.3 121.48 98.14 125.63 98.14H158.88V187.05C158.88 190.43 159.73 192.74 161.42 193.98C163.11 195.21 165.04 195.83 167.19 195.83C169.34 195.83 171.19 195.21 172.73 193.98C174.27 192.75 175.04 190.44 175.04 187.05V98.14H213.14C215.45 98.14 217.02 97.53 217.87 96.29C218.72 95.06 219.14 92.91 219.14 89.82C219.14 87.2 218.68 85.09 217.75 83.47C216.83 81.85 215.29 81.05 213.13 81.05H175.03V10.14C175.03 6.90999 174.26 4.63999 172.72 3.32999C171.18 2.01999 169.33 1.36999 167.18 1.36999C165.03 1.36999 163.1 2.02999 161.41 3.32999C159.71 4.63999 158.87 6.90999 158.87 10.14V81.04H125.62C121.46 81.04 119.39 83.89 119.39 89.58L119.4 89.6ZM185.68 77.13C187.37 77.9 189.06 77.9 190.76 77.13C192.45 76.36 194.3 74.51 196.3 71.59C199.38 64.36 202.15 57.35 204.61 50.58C207.07 43.81 209.38 37.11 211.54 30.49C213.08 25.56 213.16 22.02 211.77 19.87C210.39 17.72 208.69 16.41 206.69 15.94C204.07 14.86 202.03 15.02 200.57 16.4C199.11 17.79 197.76 20.56 196.53 24.71C195.61 28.1 194.68 31.29 193.76 34.29C192.84 37.29 191.87 40.29 190.87 43.3C189.87 46.3 188.79 49.38 187.64 52.54C186.48 55.7 185.21 59.12 183.83 62.82C180.13 70.06 180.75 74.83 185.68 77.14V77.13ZM207.5 136.36C205.57 131.51 203.57 126.86 201.5 122.39C199.42 117.93 197.61 114.46 196.07 112C194.84 110.31 193.18 109 191.11 108.07C189.03 107.15 187.15 107.07 185.45 107.84C183.75 108.61 182.56 110.11 181.87 112.34C181.18 114.57 181.44 116.92 182.68 119.38C183.6 121.08 185.02 124.04 186.95 128.27C188.87 132.51 190.84 137.01 192.84 141.78C194.84 146.55 196.73 151.13 198.5 155.52C200.27 159.91 201.54 163.03 202.31 164.87C203.23 167.03 204.46 168.64 206 169.72C207.54 170.8 209.31 170.8 211.31 169.72C216.23 167.72 217.85 164.26 216.16 159.33C215.54 157.33 214.43 154.21 212.81 149.98C211.19 145.75 209.42 141.2 207.5 136.36ZM31.29 156.18H52.29C51.79 154.63 50.8 153.09 49.26 151.54C48.75 151.03 48.16 150.59 47.52 150.26L45.46 149.19C40.87 148.49 40.63 148.45 38.18 149.4C37.9 149.51 37.63 149.63 37.36 149.77L36.68 150.13C34.19 151.45 32.66 153.71 31.28 156.17L31.29 156.18Z" fill="#E1C5EA"/>
</g>
<defs>
<clipPath id="clip0_68_2925">
<rect width="221.92" height="218.73" fill="white"/>
</clipPath>
</defs>
</svg>
