<svg width="100" height="100" viewBox="0 0 100 100" fill="none" xmlns="http://www.w3.org/2000/svg">
<g id="mic">
<g id="Ellipse 2" filter="url(#filter0_d_110_380)">
<circle cx="48" cy="48" r="44" fill="#98D1AF"/>
</g>
<path id="Vector" d="M60.4545 44.3636V48C60.4545 51.3755 59.1136 54.6127 56.7268 56.9996C54.34 59.3864 51.1028 60.7273 47.7273 60.7273C44.3518 60.7273 41.1146 59.3864 38.7277 56.9996C36.3409 54.6127 35 51.3755 35 48V44.3636" stroke="black" stroke-width="3" stroke-linecap="round" stroke-linejoin="round"/>
<path id="Vector_2" d="M47.7275 60.7273V68" stroke="black" stroke-width="3" stroke-linecap="round" stroke-linejoin="round"/>
<path id="Vector_3" d="M47.727 28C46.2804 28 44.893 28.5747 43.8701 29.5976C42.8471 30.6205 42.2725 32.0079 42.2725 33.4545V48C42.2725 49.4466 42.8471 50.834 43.8701 51.8569C44.893 52.8799 46.2804 53.4545 47.727 53.4545C49.1736 53.4545 50.561 52.8799 51.584 51.8569C52.6069 50.834 53.1816 49.4466 53.1816 48V33.4545C53.1816 32.0079 52.6069 30.6205 51.584 29.5976C50.561 28.5747 49.1736 28 47.727 28Z" stroke="black" stroke-width="3" stroke-linecap="round" stroke-linejoin="round"/>
<path id="Vector_4" d="M40.4546 68H55" stroke="black" stroke-width="3" stroke-linecap="round" stroke-linejoin="round"/>
</g>
<defs>
<filter id="filter0_d_110_380" x="0" y="0" width="100" height="100" filterUnits="userSpaceOnUse" color-interpolation-filters="sRGB">
<feFlood flood-opacity="0" result="BackgroundImageFix"/>
<feColorMatrix in="SourceAlpha" type="matrix" values="0 0 0 0 0 0 0 0 0 0 0 0 0 0 0 0 0 0 127 0" result="hardAlpha"/>
<feOffset dx="2" dy="2"/>
<feGaussianBlur stdDeviation="3"/>
<feComposite in2="hardAlpha" operator="out"/>
<feColorMatrix type="matrix" values="0 0 0 0 0 0 0 0 0 0 0 0 0 0 0 0 0 0 0.25 0"/>
<feBlend mode="normal" in2="BackgroundImageFix" result="effect1_dropShadow_110_380"/>
<feBlend mode="normal" in="SourceGraphic" in2="effect1_dropShadow_110_380" result="shape"/>
</filter>
</defs>
</svg>
